<svg width="16" height="16" viewBox="0 0 16 16" fill="none" xmlns="http://www.w3.org/2000/svg">
<path d="M15.125 5.75H11.375L12.77 4.355C12.2099 3.62176 11.488 3.02775 10.6606 2.61927C9.83323 2.21079 8.92271 1.99886 8 2C4.685 2 2 4.685 2 8C2 9.3725 2.4575 10.625 3.23 11.6375C4.145 10.5875 5.8625 9.875 8 9.875C10.1375 9.875 11.8625 10.5875 12.77 11.6375C13.5701 10.5939 14.0026 9.31501 14 8H15.5C15.5 12.125 12.125 15.5 8 15.5C3.875 15.5 0.5 12.125 0.5 8C0.5 3.875 3.875 0.5 8 0.5C10.355 0.5 12.4625 1.5875 13.835 3.29L15.125 2V5.75ZM8 14C9.425 14 10.73 13.505 11.75 12.68C11.27 11.9225 9.8375 11.375 8 11.375C6.1625 11.375 4.73 11.9225 4.25 12.68C5.27 13.505 6.575 14 8 14ZM8 3.5C9.4475 3.5 10.625 4.6775 10.625 6.125C10.625 7.5725 9.4475 8.75 8 8.75C6.5525 8.75 5.375 7.5725 5.375 6.125C5.375 4.6775 6.5525 3.5 8 3.5ZM8 5C7.3775 5 6.875 5.5025 6.875 6.125C6.875 6.7475 7.3775 7.25 8 7.25C8.6225 7.25 9.125 6.7475 9.125 6.125C9.125 5.5025 8.6225 5 8 5Z" fill="white"/>
</svg>
